<?xml version="1.0" encoding="UTF-8" standalone="no"?>
<!-- Created with Inkscape (http://www.inkscape.org/) -->

<svg
   width="1080"
   height="1080"
   viewBox="0 0 1080 1080"
   version="1.1"
   id="svg1"
   inkscape:version="1.4 (86a8ad7, 2024-10-11)"
   sodipodi:docname="výkres_2.svg"
   inkscape:export-filename="výkres_2.png"
   inkscape:export-xdpi="96"
   inkscape:export-ydpi="96"
   xmlns:inkscape="http://www.inkscape.org/namespaces/inkscape"
   xmlns:sodipodi="http://sodipodi.sourceforge.net/DTD/sodipodi-0.dtd"
   xmlns="http://www.w3.org/2000/svg"
   xmlns:svg="http://www.w3.org/2000/svg">
  <sodipodi:namedview
     id="namedview1"
     pagecolor="#505050"
     bordercolor="#eeeeee"
     borderopacity="1"
     inkscape:showpageshadow="0"
     inkscape:pageopacity="0"
     inkscape:pagecheckerboard="0"
     inkscape:deskcolor="#505050"
     inkscape:document-units="px"
     inkscape:zoom="0.76406815"
     inkscape:cx="1361.7895"
     inkscape:cy="632.79696"
     inkscape:window-width="2560"
     inkscape:window-height="1369"
     inkscape:window-x="-8"
     inkscape:window-y="-8"
     inkscape:window-maximized="1"
     inkscape:current-layer="g115" />
  <defs
     id="defs1">
    <rect
       x="452.83918"
       y="63.476012"
       width="98.813174"
       height="153.78209"
       id="rect114" />
    <rect
       x="407.68614"
       y="93.578039"
       width="20.286148"
       height="83.107769"
       id="rect113" />
    <rect
       x="394.5983"
       y="75.255066"
       width="290.54999"
       height="162.94358"
       id="rect112" />
    <rect
       x="447.60405"
       y="111.24662"
       width="12.433446"
       height="12.433446"
       id="rect111" />
  </defs>
  <g
     inkscape:groupmode="layer"
     id="layer2"
     inkscape:label="Vrstva 2" />
  <g
     inkscape:label="Vrstva 1"
     inkscape:groupmode="layer"
     id="layer1">
    <g
       id="g115"
       transform="matrix(1.5093078,0,0,1.5152728,-293.04125,-116.84837)">
      <g
         id="g5"
         inkscape:transform-center-x="-210.71419"
         inkscape:transform-center-y="447.60405">
        <rect
           style="fill:#000000;stroke-width:0.66125"
           id="rect115"
           width="715.39191"
           height="711.71204"
           x="195.02321"
           y="77.977478" />
        <path
           style="fill:#333333"
           id="path51"
           d="m 426.97487,566.97937 c -14.95747,-3.30286 -29.39539,-8.70934 -44.44813,-11.63599 -7.10815,-1.38202 -14.31425,-2.20112 -21.47138,-3.30167 -21.85427,-0.7141 -27.99721,-2.03293 -49.95068,1.89612 -8.60314,1.53972 -17.05265,3.90143 -25.41949,6.42746 -13.48424,4.07102 -27.93154,10.06588 -40.79755,15.95393 -4.77788,2.18657 -9.43454,4.62884 -14.15181,6.94327 -8.41944,4.56274 -10.26244,5.39214 -17.76758,9.99511 -4.18107,2.5643 -8.27375,5.27903 -11.89925,8.59112 -6.00793,6.79036 -2.60246,7.41057 5.03343,17.01161 0.4909,0.61724 4.37304,-0.36574 5.07471,-0.56671 1.97717,-0.46973 5.48667,-3.94533 -0.40141,0.095 -0.55524,0.38099 1.25526,-0.48893 1.87272,-0.75763 0.75787,-0.32979 2.15046,-1.30286 2.54382,-1.5554 11.0368,-7.53321 0.38323,-23.14161 -10.65358,-15.6084 v 0 c -0.0308,0.17483 -0.60365,0.3617 -0.43444,0.30803 0.50039,-0.15872 1.92341,-0.82618 1.4737,-0.55536 -1.06318,0.64025 -2.18015,1.19703 -3.32698,1.67141 -0.86629,0.35833 3.06786,-1.90718 2.46392,-1.35601 0.51902,-0.14104 3.63592,-0.90039 3.99626,-0.39162 4.39989,6.21216 10.76438,10.2389 5.32071,15.45592 1.15,-1.23992 2.86297,-2.3483 4.20725,-3.25389 6.66908,-4.49267 13.71886,-8.38807 20.83221,-12.1232 4.44343,-2.18789 8.8303,-4.49459 13.33029,-6.56365 12.06609,-5.5479 25.33183,-11.08019 37.98328,-14.98959 7.49405,-2.31572 15.05731,-4.50491 22.76765,-5.94503 19.80377,-3.69889 25.2796,-2.528 45.06514,-1.9991 6.58815,0.98711 13.22364,1.69808 19.76446,2.96134 5.30943,1.02544 10.51546,2.53095 15.74754,3.89729 9.99966,2.61138 19.8362,5.88146 29.96107,8.00574 13.15932,2.32223 16.44345,-16.28785 3.28413,-18.61008 z" />
        <path
           style="fill:#333333"
           id="path52"
           d="m 423.57533,587.00233 c -0.68466,0.12038 -1.36538,0.26577 -2.05397,0.36115 -3.95558,0.54793 -7.93263,0.92895 -11.89452,1.42929 -9.11648,1.15132 -14.66429,1.81098 -24.0681,3.92109 -5.7367,1.28724 -11.39043,2.91979 -17.08565,4.37969 -6.52033,2.22799 -13.16046,4.13214 -19.56099,6.68395 -15.78321,6.29256 -29.83229,13.59199 -44.65128,21.87987 -17.12618,9.57823 -33.57049,20.24192 -49.92967,31.05193 -9.15013,6.52892 -18.81415,12.4937 -27.31843,19.89181 -6.42956,6.21763 -0.69567,5.46856 9.21137,16.47992 0.15182,0.16875 2.11172,-0.98847 2.27734,-1.0811 2.62391,-1.82445 -0.0577,0.0212 0.055,0.0168 0.61465,-0.0237 1.13518,-0.47413 1.70278,-0.7112 12.30825,-5.20262 4.95064,-22.60912 -7.35762,-17.4065 v 0 c -5.23667,2.2321 0.56463,-0.34805 -5.07189,2.53911 -0.30754,0.15753 0.57002,-0.39073 0.85502,-0.58609 0.45595,-0.24801 1.23728,-0.64825 1.27484,-0.60014 3.71673,4.76105 15.28609,10.69059 9.51757,15.55335 1.55622,-1.38747 3.21757,-2.65884 4.88255,-3.91119 6.6542,-5.00508 13.50099,-9.74859 20.39196,-14.41985 15.85942,-10.48627 31.80109,-20.82737 48.39367,-30.13796 13.70708,-7.69145 27.30657,-14.81141 41.90234,-20.6849 5.93404,-2.38792 12.09361,-4.17189 18.14041,-6.25784 5.27834,-1.36744 10.51745,-2.89641 15.83501,-4.10231 8.9423,-2.02791 14.125,-2.63304 22.84699,-3.73443 1.73767,-0.21943 11.15378,-1.29181 13.49701,-1.69113 1.40885,-0.24008 2.78947,-0.62364 4.18419,-0.93547 12.67692,-4.22564 6.70096,-22.15351 -5.97595,-17.92787 z" />
        <path
           style="fill:#333333"
           id="path53"
           d="m 427.4119,604.3647 c -1.45666,0.44486 -2.93568,0.82218 -4.36997,1.33459 -6.7608,2.41532 -10.89233,4.41111 -17.66548,7.93362 -11.98502,6.23303 -20.61774,11.34823 -32.2006,18.98224 -7.04776,4.64503 -13.88822,9.5972 -20.83233,14.3958 -30.61713,22.10411 -58.49179,47.67398 -84.95436,74.5391 -11.3567,11.52945 -16.32143,17.08232 -26.81759,28.47425 -6.73957,7.56659 -8.31697,9.23491 -14.33424,16.31127 -3.21083,3.77595 -6.39241,7.57661 -9.06197,11.75938 -4.12679,7.80353 -0.51781,8.68026 11.39799,14.54109 0.91018,0.44768 7.47053,-5.55844 8.36704,-6.31802 10.18273,-8.65288 -2.05429,-23.05343 -12.23702,-14.40055 v 0 c -1.00418,0.85545 -2.02233,1.69476 -3.01253,2.56634 -0.35896,0.31596 -1.42062,0.71424 -1.03351,0.99499 0.44799,0.32491 1.0876,-0.95546 1.53573,-0.63075 5.15435,3.73477 15.25212,6.91195 11.00732,13.26287 1.04336,-1.76419 2.37071,-3.4124 3.65339,-4.9945 5.64138,-6.95825 11.65953,-13.60405 17.61702,-20.28851 10.28017,-11.16224 15.10677,-16.56335 26.23056,-27.86495 25.67231,-26.08266 52.69588,-50.93154 82.39204,-72.40978 6.69376,-4.6341 13.28946,-9.41317 20.08129,-13.90231 12.76275,-8.43569 26.04699,-16.32119 39.97393,-22.70643 3.79921,-1.74187 5.13114,-2.08122 8.64038,-3.196 12.99927,-3.09507 8.62219,-21.47881 -4.37709,-18.38374 z" />
        <g
           id="g40"
           style="fill:#333333"
           transform="translate(0,2.6175675)">
          <path
             style="fill:#333333"
             id="path37"
             d="m 250.85652,333.71531 c 0.10793,-6.53109 0.28452,-16.41022 0.24223,-21.65043 -0.1689,-20.92707 -0.83327,-37.23828 -1.58185,-58.46293 -2.23104,-63.25712 -0.33064,-5.51626 -2.32767,-67.83622 -0.37287,-21.57758 -1.00521,-34.73519 0.0621,-55.85145 0.33292,-6.58683 0.81366,-13.17736 1.70444,-19.71217 0.58503,-4.29178 1.33104,-8.60317 2.7148,-12.707671 0.5699,-1.69043 1.94523,-5.795896 3.05156,-4.39648 1.17197,1.482432 -1.67179,3.389618 -2.50769,5.084427 0.884,1.626294 1.5741,3.374074 2.65199,4.878884 16.47881,23.00555 2.65915,-0.0213 21.26548,29.22362 9.90836,15.57372 18.73882,31.62998 27.06466,48.10055 4.35363,8.61256 8.34741,17.40235 12.52112,26.10352 13.6523,30.28122 26.54199,63.84863 36.63415,95.50194 0.85699,2.87456 0.62303,1.54322 1.31127,4.19562 0.10978,0.42308 0.20727,0.84939 0.2986,1.27683 0.0189,0.0884 0.0432,0.35889 0.0317,0.26924 -0.045,-0.35296 -0.45888,-0.91764 -0.13243,-1.05922 5.4848,-2.37868 11.22344,-4.123 16.83516,-6.18451 0.98823,1.81712 3.00073,6.21641 -0.98447,-1.90979 -7.0191,-11.37069 -23.09969,-1.44419 -16.08059,9.9265 v 0 c 6.46177,-20.90353 16.46802,-24.8207 16.97036,-23.45508 0.32974,0.8964 0.19693,-13.66872 -10.07485,10.02464 5.81977,-1.7687 18.36514,-7.27711 24.00323,-9.55965 0.52765,-0.21362 -11.85485,19.47653 -11.92999,18.91227 -0.4922,-3.69527 -2.02393,-7.2031 -2.89887,-10.79841 -10.36985,-32.48174 -22.90786,-64.25181 -36.94679,-95.31826 -4.29236,-8.9357 -8.39839,-17.96332 -12.87709,-26.80709 -8.65034,-17.08123 -17.86485,-33.79978 -28.1812,-49.93743 -4.0575,-6.34707 -18.10465,-26.903125 -24.48784,-32.81629 -4.11797,-3.814738 -9.29851,-6.291039 -13.94777,-9.436559 -4.97949,1.465136 -10.71263,1.381418 -14.93848,4.395407 -5.09614,3.634696 -7.67648,21.019822 -8.19496,24.882752 -0.92988,6.92808 -1.42022,13.9144 -1.76836,20.89593 -1.07388,21.5357 -0.43798,34.93288 -0.0572,56.88324 1.97988,61.77403 0.1207,5.33172 2.32886,67.87224 0.72486,20.52995 1.40688,37.34969 1.57178,57.64513 0.0628,7.72445 -0.22015,15.4486 -0.19502,23.1733 0.95205,13.32869 19.80166,11.98229 18.84961,-1.3464 z"
             sodipodi:nodetypes="ssscsssscsssccsscsccssscscccssscssscsscss" />
          <path
             style="fill:#333333"
             id="path38"
             d="m 356.53809,301.9811 c 1.61087,0.0858 4.86598,-8.06538 6.46858,-8.24964 5.65809,-0.65054 5.44764,11.60357 15.32799,3.83549 8.62176,-6.77855 20.49713,-7.85216 30.69005,-11.89272 22.4053,-9.18106 45.59277,-16.16329 68.8893,-22.65668 19.42929,-5.48572 39.44264,-8.284 59.48752,-10.2759 13.78041,-1.49072 27.62514,-1.69995 41.43611,-0.64215 12.68286,1.27457 25.14004,4.21823 37.50037,7.24716 9.27268,2.36875 18.20432,5.80207 27.01192,9.50268 4.6594,1.9405 12.34968,7.95583 16.28004,11.12636 6.19026,-4.21933 8.9353,-12.29219 9.37646,-11.52753 -4.17965,-4.83564 2.13709,-3.91167 -4.92909,-3.91253 -0.5243,-0.002 -1.0486,-0.003 -1.57289,-0.005 -13.36259,-0.0417 -10.95626,26.63116 -0.0589,18.89755 l 10.14307,-7.19831 c 0.45352,-0.32185 -9.03084,7.20131 -8.47473,7.20331 0.0894,-3e-4 2.63074,0.006 2.6788,-0.0565 7.02702,-9.15986 10.89584,-9.07119 7.33734,-14.96591 -1.67056,-2.55098 -3.70844,-4.83928 -6.01852,-6.83214 -5.32374,-4.18828 -11.17271,-7.57546 -17.44638,-10.15371 -9.72415,-4.07938 -19.59518,-7.8379 -29.83454,-10.43416 -13.37246,-3.26901 -26.8513,-6.42414 -40.57947,-7.736 -14.9078,-1.09749 -29.84979,-0.94272 -44.72372,0.68238 -21.12553,2.11141 -42.21233,5.09128 -62.6883,10.87691 -23.93614,6.67461 -47.75511,13.86623 -70.77846,23.2925 -13.6574,5.41413 -27.27115,10.98113 -41.27321,15.46082 -13.02044,-3.00472 -17.26976,15.40898 -4.24931,18.41369 z"
             sodipodi:nodetypes="sssccccccccccsscccccccccccss" />
          <path
             style="fill:#333333"
             id="path39"
             d="m 674.5448,280.98433 c 2.94073,-6.61793 -1.88546,3.70566 5.43605,-5.17183 11.03225,-13.37682 12.1804,-13.55965 13.73945,-15.48629 23.87333,-29.91371 47.28728,-60.21471 72.51572,-89.01537 5.44282,-6.21351 11.04569,-12.28498 16.56853,-18.42747 17.49676,-18.1353 34.87424,-37.01564 55.89371,-51.20387 1.62813,-1.099 3.33434,-2.077622 5.00151,-3.116431 1.03437,-0.451484 2.01302,-1.062096 3.1031,-1.354453 0.17961,-0.04817 0.53885,0.37142 0.3609,0.425418 -0.89816,0.272546 -1.86165,0.375958 -2.79821,0.314184 -0.84602,-0.0558 -1.96536,-1.352054 -2.45625,-0.660758 -0.8437,1.188142 -0.0349,2.91777 -0.17634,4.36812 -0.47369,4.85777 -1.11207,9.69808 -1.6681,14.54711 -1.31556,7.75842 -2.56093,15.52906 -3.94666,23.27525 -1.71913,9.60991 -3.57842,19.19421 -5.36763,28.79132 -1.92349,10.49126 -3.9013,20.9727 -5.77047,31.47376 -3.99266,22.43088 -7.04514,40.54258 -10.46721,62.97377 -1.36617,8.95504 -2.60037,17.92972 -3.90055,26.89458 -2.3592,17.48288 -5.08367,38.27715 -6.79016,55.83587 -0.58444,6.01353 -0.95403,12.04786 -1.61744,18.05234 0.7264,-1.71113 2.1072,-6.69422 2.8336,-8.40535 -9.51975,9.37735 14.73915,1.75664 9.66242,14.11735 l -7.5255,18.32297 c -0.90138,2.19468 4.84799,-16.2945 5.96321,-18.38863 0.65179,-6.05156 9.87736,-18.01468 10.46562,-24.07368 1.67892,-17.29265 3.38959,-35.53097 5.71031,-52.74913 1.28707,-8.87861 2.50868,-17.76697 3.86121,-26.63585 3.39607,-22.26896 6.42816,-40.26491 10.39231,-62.53633 3.59558,-20.2008 7.59185,-40.32894 11.18476,-60.53022 1.45127,-8.15982 2.7429,-16.34724 4.11434,-24.52086 0.70725,-7.85548 3.42872,-20.94231 -0.13985,-29.43098 -2.83359,-6.740347 -6.90648,-9.345536 -13.80184,-9.799434 -4.12455,-0.271505 -7.77862,2.012856 -11.26687,3.684483 -1.98545,1.252198 -4.01503,2.437019 -5.95635,3.756594 -22.10899,15.028157 -40.56046,34.748707 -58.95171,53.939507 -5.62678,6.26106 -11.33468,12.45015 -16.88034,18.78318 -25.33502,28.9321 -48.86733,59.35465 -72.84016,89.40549 -1.36399,1.6856 -9.801,12.09831 -11.64102,14.4187 -5.4301,6.84772 -4.2773,-9.05303 -7.8226,-0.99997 -8.04466,8.28459 9.55142,31.33785 14.97851,19.12691 z"
             sodipodi:nodetypes="cscscscssssscscsscsccsscscssscsscscscscc" />
          <path
             style="fill:#333333;stroke-width:1.14078"
             id="path40"
             d="m 236.88062,327.86102 c -0.79962,2.32363 -3.86264,3.73878 -4.48116,6.16109 -1.19429,4.67729 0.0149,13.67525 -0.44068,18.38308 -0.95057,9.82359 -1.42609,19.70807 -1.89654,29.58852 -0.56357,22.04001 0.40455,44.09603 1.0441,66.11712 0.50931,19.15753 2.71603,38.0802 6.08244,56.67127 2.85874,14.82315 7.16842,28.96654 12.00724,42.78032 4.67826,12.92938 8.6021,26.31466 12.83765,39.50999 3.2584,10.44954 7.14232,20.53544 11.48725,30.23212 1.32372,2.82154 2.62892,5.6758 4.17544,8.28901 2.64204,4.3519 6.56685,5.46165 10.29813,4.25988 0.15473,-0.0604 0.61026,-0.0895 0.4642,-0.18106 -3.65343,-2.29146 -7.26512,-4.77727 -11.09009,-6.48356 -0.47936,-0.21383 0.42672,1.23675 0.66905,1.83481 1.50891,3.72395 3.45174,6.88212 5.45887,10.12966 6.89575,10.60277 14.50327,20.26605 22.39953,29.48351 16.14452,18.02772 34.34199,32.20625 52.75175,45.51384 13.68599,9.52384 27.58409,18.73417 42.22837,25.30818 11.84844,5.31893 15.59069,6.04016 27.86962,9.8219 25.89314,7.38419 52.42521,7.45706 78.72566,5.347 5.67733,-0.45547 11.34305,-1.14465 17.01458,-1.71698 23.03049,-2.79409 45.92264,-7.67226 68.47857,-14.5486 14.41122,-4.39335 20.56855,-6.8811 34.90425,-12.14069 15.73268,-6.23936 31.53739,-12.48099 46.73176,-20.89182 4.09372,-2.26607 8.25748,-4.40593 12.09909,-7.36959 10.46875,-8.07628 14.30515,-13.90304 23.14361,-24.67249 9.53501,-12.95017 18.32111,-26.87722 26.5069,-41.40528 2.40399,-4.26658 4.80013,-8.54816 7.01979,-12.99315 6.14282,-12.30132 7.38337,-16.28227 12.57256,-29.4395 1.97336,-5.61324 3.98473,-11.20241 5.92007,-16.83974 13.05762,-38.03488 -1.44661,3.32719 11.5599,-34.21357 4.66733,-13.47138 7.11163,-19.7629 11.63199,-33.47635 1.97192,-5.98221 3.81939,-12.03782 5.72908,-18.05673 4.04175,-20.38264 13.36964,-61.34245 21.61587,-88.28452 2.13061,-10.53436 3.94156,-21.40621 7.72103,-31.14365 1.57724,-3.17258 3.07403,-6.30104 4.03591,-9.91989 0.10006,-0.48939 -6.40145,-15.99093 -6.57075,-15.5376 -1.23871,3.31678 6.75353,20.54157 5.63874,17.74808 -4.79685,-12.02014 -0.46636,0.7943 -0.72777,1.15678 -0.24021,0.33309 -0.98915,1.28693 -0.77331,0.92469 0.75687,-1.27029 -5.92353,-11.60139 -5.12253,-12.82135 4.481,-14.76495 6.83182,2.20633 -9.45272,6.15575 -0.0349,3.2273 -0.0697,6.4546 -0.10459,9.68191 -0.1891,17.71232 13.76591,2.3466 8.73404,-5.20121 l -1.96317,-2.94476 c -14.19304,-21.28956 2.36137,-7.05339 2.39686,-10.4165 -17.46481,-5.79385 -11.73846,10.34946 -7.9042,-1.20041 0.73206,-1.06799 1.53426,-2.05555 2.19618,-3.20399 0.27995,-0.48573 -0.7158,0.76615 -1.04027,1.19844 -0.37426,0.4986 -0.73586,1.01977 -1.05114,1.58788 -1.20789,2.17653 -1.14581,2.54537 -1.93525,5.23338 -0.0231,0.0783 0.0455,-0.15702 0.0683,-0.23552 0.0639,-0.15781 0.22401,-0.57095 0.30017,-0.64427 0.0723,-0.0697 -0.0682,0.22304 -0.11606,0.3242 -0.20507,0.43363 -0.42959,0.8499 -0.64138,1.27758 -1.55735,3.14511 -0.90715,1.77899 -2.50545,5.4862 -4.17692,11.30785 -6.77246,23.47447 -9.0398,35.70276 -6.00339,28.79577 -12.54632,57.43987 -20.81332,85.21626 -1.83744,5.79975 -3.61325,11.6358 -5.51229,17.39926 -4.40018,13.35421 -7.07691,20.32833 -11.64952,33.52762 -10.8334,31.27164 -0.84136,2.91507 -11.46933,33.95161 -1.81413,5.29775 -3.69625,10.55256 -5.54438,15.82884 -4.4806,11.45837 -5.86201,15.74039 -11.17724,26.42541 -2.07958,4.18053 -4.32822,8.20498 -6.58319,12.21628 -7.56405,13.45541 -15.67542,26.36388 -24.44508,38.41798 -5.98808,7.45418 -11.1912,14.79939 -18.30271,20.36969 -3.47004,2.71802 -7.24416,4.66947 -10.954,6.73056 -14.65448,8.1416 -29.91177,14.1441 -45.08981,20.17672 -13.81899,5.07734 -19.94553,7.54896 -33.8178,11.78889 -21.76667,6.65279 -43.85836,11.38222 -66.08493,14.09296 -5.482,0.55707 -10.95841,1.2261 -16.44602,1.67123 -24.64782,1.99934 -49.52366,2.11197 -73.80427,-4.75114 -10.97145,-3.33837 -14.9138,-4.14712 -25.47328,-8.85467 -13.8723,-6.18444 -27.0196,-14.92807 -39.9769,-23.93386 -17.2138,-12.42471 -34.25303,-25.61611 -49.38639,-42.39533 -7.17673,-8.3353 -14.06412,-17.11108 -20.34896,-26.68743 -1.14629,-1.79411 -1.65884,-2.49354 -2.6045,-4.28077 -0.23211,-0.43868 -0.27977,-1.12718 -0.63603,-1.37061 -3.79122,-2.59038 -7.66079,-4.96919 -11.44077,-7.58932 -0.0981,-0.068 0.21227,-0.0802 0.31842,-0.12023 3.18701,-0.97463 6.5979,0.57654 8.76691,4.13309 -0.70025,-1.11229 -1.93035,-3.9062 -2.6826,-5.43451 -3.92287,-8.71467 -7.40022,-17.80707 -10.33011,-27.20947 -4.32074,-13.4501 -8.31982,-27.09609 -13.09421,-40.27367 -4.32082,-12.28166 -8.17815,-24.84948 -10.75514,-38.0272 -3.09915,-16.94508 -5.08679,-34.2078 -5.56099,-51.67626 -0.61459,-21.16128 -1.54362,-42.35415 -1.06778,-63.53431 0.4335,-9.17901 0.88707,-18.35037 1.73016,-27.48197 0.23688,-2.56565 0.16582,-9.05836 0.47837,-11.60918 0.19327,-1.5774 0.0444,-8.33973 -0.23388,-9.91039 -2.06637,-11.66313 -6.77936,2.92205 -6.87894,2.75842 8.05376,-13.9827 1.26251,-23.47337 -6.79124,-9.49066 z"
             sodipodi:nodetypes="ssscccccccccsscccscscscsscsscsssccccsssscccssccsssscssscccssscsscsscscscscccsssccccccccsssccs" />
        </g>
        <g
           id="g92"
           transform="translate(-7.1983107,7.1983107)">
          <path
             style="fill:#ff00ff"
             id="path41"
             d="m 395.87127,334.86321 c -0.64525,21.25114 -2.30657,42.45934 -3.94722,63.65195 -1.71006,21.04817 -0.87689,10.95965 -2.4931,30.2661 -1.1147,13.31607 17.71707,14.8925 18.83177,1.57643 v 0 c 1.62201,-19.37668 0.78564,-9.24873 2.50263,-30.38438 1.26454,-16.34515 1.49116,-18.51721 2.5094,-34.55495 0.29568,-4.65718 0.56654,-9.31597 0.81976,-13.97565 0.11611,-2.13665 0.63569,-11.93215 0.63666,-15.43826 3.6e-4,-1.27227 -0.10146,-2.54251 -0.15219,-3.81377 -1.88976,-13.22834 -20.59747,-10.55582 -18.70771,2.67253 z" />
          <path
             style="fill:#00ff00"
             id="path42"
             d="m 598.13581,324.51209 c 1.03752,15.18609 1.39265,30.43815 0.86604,45.65422 -0.20067,5.798 -0.62497,11.58609 -0.93746,17.37913 -1.50671,17.1554 -3.79087,34.22617 -5.9195,51.31114 -1.65206,13.26013 17.1006,15.5965 18.75266,2.33637 v 0 c 2.18344,-17.5255 4.52855,-35.03651 6.0375,-52.63797 0.32094,-6.04717 0.75715,-12.08932 0.96282,-18.14151 0.55779,-16.41469 0.25607,-32.91909 -1.16924,-49.28189 -2.39038,-13.14711 -20.9832,-9.7666 -18.59282,3.38051 z" />
        </g>
        <g
           id="g64"
           transform="translate(42.535472,-5.235135)"
           style="fill:#333333">
          <path
             style="fill:#333333"
             id="path48"
             d="m 546.11033,584.37182 c 13.41313,-5.76781 26.98324,-11.1806 41.03905,-15.21038 6.72199,-1.92718 13.43289,-4.00401 20.32042,-5.21278 9.47427,-1.66274 19.10548,-2.25533 28.65822,-3.383 10.95242,-0.32746 21.90043,-1.08584 32.85725,-0.98239 31.97499,0.3019 63.93944,4.18525 95.27132,10.43137 20.56667,4.10004 28.6707,6.69261 48.21038,12.09978 11.59024,3.66224 18.8759,5.71382 29.80158,9.97147 3.09284,1.20526 8.62952,3.39173 11.7094,5.76388 0.38834,0.29911 -1.18901,-0.0415 -1.38642,-0.4902 -0.95908,-2.17973 -1.24255,-4.59785 -1.86383,-6.89678 -1.26518,-1.06476 -0.33135,-0.55862 -2.82154,1.4808 -10.21268,8.6175 1.97432,23.06042 12.187,14.44291 v 0 c 5.42079,-4.65949 2.64714,-1.8937 8.0419,-8.56812 -0.009,-3.74833 0.98339,-7.63524 -0.0265,-11.24498 -0.97978,-3.50223 -7.57491,-6.99852 -10.31472,-8.33409 -12.83907,-6.25863 -26.7817,-9.93143 -40.29431,-14.34009 -20.33006,-5.60822 -28.62615,-8.26133 -50.03745,-12.50837 -32.57981,-6.46235 -65.82,-10.45182 -99.06323,-10.69611 -11.51878,-0.0847 -23.0263,0.73996 -34.53945,1.10995 -10.36715,1.28105 -20.81816,2.00668 -31.10146,3.84317 -7.27096,1.29851 -14.35683,3.49589 -21.4536,5.54259 -14.21504,4.0996 -27.9971,9.49458 -41.55,15.38468 -12.58417,4.49434 -6.22821,22.29104 6.35596,17.79669 z" />
          <path
             style="fill:#333333"
             id="path49"
             d="m 548.89362,602.1194 c 13.11739,-2.1461 26.26589,-4.08778 39.57113,-4.58208 15.55107,-0.57775 23.35186,-8.6e-4 39.32746,0.5414 26.63108,1.76603 53.22228,4.90684 79.35375,10.4409 8.61276,1.82399 17.22358,3.74536 25.65065,6.29311 19.07673,5.76746 25.53619,9.56235 42.99747,17.82589 12.3421,6.56355 24.1227,14.13682 35.00936,22.90798 3.75029,3.02153 7.22752,6.23529 10.41034,9.83498 0.22994,0.32577 0.48056,0.63789 0.68983,0.97732 0.0162,0.0262 -0.0772,0.0192 -0.0921,-0.008 -0.23687,-0.4285 -0.66609,-0.83188 -0.64238,-1.32091 0.12921,-2.66488 -0.35684,-5.68827 1.09089,-7.92933 2.88838,-4.4712 5.31954,-4.01578 8.87648,-3.94113 -0.25105,-0.17834 -0.5021,-0.35669 -0.75315,-0.53503 -11.65895,-6.52912 -20.89251,9.95912 -9.23357,16.48824 v 0 c 1.07601,0.56482 2.15202,1.12965 3.22803,1.69447 5.15692,1.16755 8.75954,3.14655 13.3582,-2.86153 4.32961,-5.65659 0.84479,-11.00696 -2.46945,-15.19919 -0.88999,-0.9788 -1.74257,-1.99297 -2.66997,-2.93639 -5.86986,-5.97128 -12.5026,-11.30554 -19.31994,-16.14038 -4.12393,-2.92468 -8.28858,-5.80163 -12.59327,-8.45309 -5.51132,-3.39469 -11.22478,-6.4497 -16.83717,-9.67455 -19.24435,-9.0236 -25.51446,-12.76533 -46.55953,-19.08604 -8.80682,-2.64506 -17.80295,-4.64028 -26.8007,-6.53678 -27.02524,-5.69624 -54.52219,-8.93149 -82.06101,-10.72781 -7.37425,-0.24395 -14.745,-0.64193 -22.12273,-0.73184 -6.39696,-0.0779 -12.7984,-0.0217 -19.19095,0.22837 -13.50776,0.5284 -26.88296,2.40301 -40.19598,4.63738 -13.28923,1.39887 -11.31094,20.19267 1.97829,18.79381 z" />
          <path
             style="fill:#333333"
             id="path50"
             d="m 555.94912,622.07331 c 6.05741,-1.9948 12.24665,-3.92399 18.61164,-4.66408 9.29428,-1.0807 20.36807,-1.05527 29.52935,-0.16064 6.2945,0.61468 12.50875,1.87761 18.76312,2.81641 6.73625,2.1431 13.63973,3.81821 20.20876,6.42931 21.3094,8.47016 40.48671,21.22222 57.72698,36.21326 11.5074,10.00611 17.91957,17.40128 28.16697,28.37158 10.82939,12.57019 21.79733,25.11957 31.32376,38.73196 -0.0626,-0.0128 -0.18328,0.0252 -0.18777,-0.0385 -0.66655,-9.48095 -1.88403,-5.83573 5.17934,-12.15215 -13.17012,2.26013 -9.97382,20.8855 3.1963,18.62537 v 0 c 2.75813,-1.79881 6.55397,-2.58873 8.27439,-5.39643 3.14008,-5.12458 0.96215,-8.11481 -0.98979,-11.88833 -10.05979,-14.3208 -21.54145,-27.59067 -32.9974,-40.79366 -11.06021,-11.80089 -17.73973,-19.50602 -30.22783,-30.26999 -19.04939,-16.41941 -40.28478,-30.3418 -63.83401,-39.44233 -7.51014,-2.90227 -15.39418,-4.72453 -23.09127,-7.0868 -6.94705,-1.00181 -13.85152,-2.36494 -20.84115,-3.00544 -11.08585,-1.01587 -22.81574,-0.86825 -33.89476,0.5135 -7.30748,0.91137 -14.41513,3.12986 -21.37477,5.43708 -12.55813,4.5666 -6.09999,22.32647 6.45814,17.75988 z" />
        </g>
        <g
           id="g61"
           style="fill:#333333">
          <path
             style="fill:#333333"
             id="path54"
             d="m 708.75046,267.29547 c 1.34367,-1.4395 2.69954,-2.86772 4.03101,-4.31852 2.23276,-2.43287 4.39859,-4.92735 6.66145,-7.33225 18.29102,-19.4392 37.66241,-37.81333 56.97906,-56.219 16.40761,-15.41181 32.93003,-30.74872 50.51752,-44.8185 1.37979,-0.70981 2.43507,-2.22805 3.92023,-2.82393 0.10369,-0.0416 -0.17633,0.14177 -0.2791,0.18561 -0.49069,0.20935 -0.96243,0.54053 -1.49503,0.57131 -1.75173,0.1012 -3.50722,-0.12066 -5.26083,-0.18099 -2.48941,-5.00035 -8.14554,-9.25927 -5.10381,-13.62766 0.23612,-0.33911 0.90129,-1.37043 0.75298,-0.98475 -3.74878,9.74887 -1.66277,2.89942 -2.41211,5.38295 -4.08276,15.46969 -7.53159,31.111 -10.25262,46.87897 -0.98876,5.72969 -1.80985,11.48706 -2.71477,17.23058 -3.45797,24.43499 -6.05743,48.98031 -9.4426,73.42464 -0.43698,2.7992 -0.7807,5.61845 -1.34041,8.39792 -0.0231,0.11471 -0.0556,-0.29174 0.0471,-0.34787 3.97474,-2.17299 7.60947,-5.41052 12.05723,-6.26955 1.72764,-0.33367 2.8395,2.07882 4.25925,3.11824 -7.37681,-11.14195 -23.13391,-0.70957 -15.7571,10.43238 v 0 c 1.65433,1.39372 2.81228,4.41296 4.96299,4.18117 4.63272,-0.4993 8.579,-3.70256 12.59052,-6.07302 0.48009,-0.28368 0.30492,-1.07347 0.425,-1.61802 0.67083,-3.04191 0.93323,-6.16733 1.47451,-9.22964 3.36746,-24.32951 5.96743,-48.75749 9.39162,-73.07975 0.87241,-5.55548 1.66356,-11.12432 2.61724,-16.66643 2.66872,-15.5087 6.07535,-30.8859 10.08872,-46.1 0.54902,-2.52636 1.21735,-4.93899 -1.85645,2.87675 -0.16712,0.42494 0.57702,-0.70883 0.8396,-1.08241 0.21416,-0.3047 0.9244,-1.5303 0.898,-1.60303 -1.61575,-4.45158 -3.61941,-8.75264 -5.42912,-13.12897 -1.82313,-0.084 -3.64771,-0.36304 -5.4694,-0.25206 -0.71928,0.0438 -1.37664,0.43304 -2.04204,0.70968 -2.71257,1.12777 -4.92779,3.24344 -7.27873,4.92441 -18.00435,14.41872 -34.95149,30.09453 -51.74477,45.89084 -23.1064,22.01828 -46.33494,43.98794 -67.61069,67.81207 -9.71482,9.17511 3.26074,22.91394 12.97556,13.73883 z" />
          <path
             style="fill:#333333"
             id="path55"
             d="m 695.81004,273.99631 c 1.78241,-0.1952 3.55869,-0.4583 5.34724,-0.58558 6.15572,-0.43806 12.40343,-0.53587 18.56436,-0.25061 7.9747,0.36925 15.83411,1.09931 23.62747,2.94162 3.9033,0.92272 7.6749,2.33334 11.51236,3.50001 15.0353,6.30327 28.2093,14.78162 38.97837,27.10067 1.13835,1.3022 2.1512,2.70899 3.2268,4.06348 1.71577,2.49772 2.14096,2.96803 3.47803,5.36592 0.2546,0.45658 0.48246,0.92796 0.70219,1.40231 0.10774,0.23257 0.34118,0.96596 0.23915,0.73082 -0.0579,-0.13337 -0.0897,-0.27661 -0.1345,-0.41492 15.64485,-9.77971 19.53502,-5.44192 13.85574,-10.65679 -9.85421,-9.02523 -22.61782,4.91072 -12.76361,13.93596 v 0 c 5.50968,5.02933 0.59322,1.109 17.34893,-7.4081 -1.4123,-5.5055 -4.69698,-10.25509 -7.99872,-14.79708 -4.06596,-5.00831 -5.08683,-6.55364 -10.01051,-11.2603 -12.18958,-11.6523 -25.84095,-19.99315 -41.53212,-26.1747 -4.59094,-1.34134 -9.11043,-2.95723 -13.77283,-4.02403 -15.0386,-3.44095 -32.01077,-3.97062 -47.39143,-2.83815 -1.96556,0.14473 -3.91776,0.43434 -5.87664,0.6515 -13.2356,1.83828 -10.63588,20.55624 2.59972,18.71797 z" />
        </g>
        <g
           id="g62"
           style="fill:#333333">
          <path
             style="fill:#333333"
             id="path58"
             d="m 255.26402,137.21824 c -0.4322,1.3927 -0.97649,2.75544 -1.2966,4.17809 -0.84384,3.75019 -1.40897,9.28024 -1.74932,13.01966 -0.82876,9.10558 -1.14087,18.21332 -1.3845,27.34923 0.0232,19.52511 0.87115,39.04306 1.66207,58.55006 0.41853,11.36297 1.12132,22.7126 1.52601,34.07604 0.24623,6.07589 0.15657,12.15862 0.34425,18.23517 0.30093,5.68255 0.3156,11.37516 0.57962,17.05856 0.28361,4.3017 0.71424,8.58524 1.60232,12.80592 0.28757,1.23403 0.54959,2.32255 0.73123,3.58979 0.12355,1.48856 0.62744,2.90234 0.90917,4.35967 0.043,0.26971 0.005,0.13206 0.0147,0.68812 19.61795,1.15437 17.01015,7.13456 19.55105,-0.90936 4.012,-12.74614 -14.01377,-18.41997 -18.02577,-5.67383 v 0 c -2.60443,8.29897 -1.5791,2.23498 17.36893,6.22331 -0.0277,-1.35674 -0.0934,-2.71773 -0.38104,-4.04854 -0.23828,-1.16811 -0.6073,-2.30167 -0.7539,-3.47885 -0.24504,-1.56841 -0.55349,-3.12248 -0.92668,-4.6654 -0.68902,-3.22481 -0.96837,-6.5024 -1.21366,-9.7886 -0.27308,-5.58491 -0.25705,-11.18146 -0.56796,-16.76564 -0.20367,-6.09873 -0.0782,-12.20605 -0.34659,-18.30418 -0.4073,-11.39411 -1.10625,-22.77461 -1.52952,-34.16814 -0.77464,-19.08669 -1.59937,-38.18378 -1.65306,-57.28784 0.31982,-12.37224 0.70086,-24.80934 2.66402,-37.0517 5.65087,-12.10901 -11.47385,-20.10054 -17.12472,-7.99154 z" />
          <path
             style="fill:#333333"
             id="path59"
             d="m 266.82918,157.47347 c 3.69167,3.24323 6.27375,7.41377 8.52958,11.73342 3.33008,6.3767 4.05474,8.50672 6.92958,15.31628 4.95723,12.2832 8.62179,25.05867 11.67832,37.93452 1.35945,5.72678 2.58371,11.48488 3.90792,17.21991 2.64377,11.42854 5.78193,22.73314 9.55148,33.84032 1.67277,5.36044 3.91781,10.472 6.42769,15.48127 1.04159,2.39268 2.62015,4.51655 3.71086,6.87565 0.19658,0.38911 0.71815,2.44381 0.24888,0.57407 -0.32275,-1.26031 0.46495,3.44019 0.50527,3.64785 0.36439,1.83464 1.01928,3.5932 1.46095,5.40682 1.68402,7.6675 -0.0475,2.06326 18.78014,-0.0415 2.22954,-13.17534 -16.40321,-16.32838 -18.63274,-3.15304 v 0 c 6.05136,-0.32904 12.10042,-1.27087 18.15407,-0.98714 0.0934,0.004 0.62188,3.09922 0.35129,1.29149 -0.0362,-0.24214 -0.0731,-0.48429 -0.11846,-0.72488 -0.0608,-0.32262 -0.13329,-0.64294 -0.19994,-0.96441 -0.38356,-1.51802 -0.85936,-3.00928 -1.2624,-4.52215 -0.11015,-0.52292 -0.47378,-2.83806 -0.19301,-0.40226 0.0211,0.18325 -0.007,-0.36888 -0.0147,-0.55319 -0.0376,-0.92329 -0.0437,-0.79495 -0.15349,-1.8771 -0.41529,-2.03159 -0.99999,-4.00321 -1.89528,-5.88479 -1.18952,-2.43487 -2.67195,-4.70573 -3.84616,-7.15125 -2.12377,-4.23813 -4.04446,-8.54492 -5.42991,-13.09483 -3.57348,-10.50465 -6.52546,-21.20341 -9.03148,-32.01298 -1.35128,-5.85081 -2.59879,-11.72563 -3.99146,-17.56673 -3.2961,-13.82439 -7.2631,-27.53239 -12.61015,-40.71405 -5.31997,-12.49313 -10.64732,-25.70584 -21.33475,-34.64999 -10.59155,-8.14735 -22.11365,6.83137 -11.52209,14.97872 z" />
          <path
             style="fill:#333333"
             id="path60"
             d="m 263.4326,324.8633 c -0.20988,2.70119 -1.41723,5.261 -2.39643,7.76377 -3.06162,7.55883 -3.9034,5.85067 13.1001,14.28132 1.37017,0.67936 2.50867,-1.7499 3.76301,-2.62485 8.50665,-6.45908 16.63216,-13.42617 25.26999,-19.71394 5.56647,-4.05202 8.31099,-5.6851 14.00619,-9.31537 4.42415,-2.70904 8.92802,-5.28834 13.52171,-7.69895 0.17045,-0.0894 3.24686,-1.6741 3.83693,-1.91391 0.15293,-0.0621 -0.27212,0.18698 -0.40817,0.28047 -4.87405,0.57872 -1.29537,0.55031 -5.45809,-0.30372 -0.0727,-0.0149 0.046,0.14739 0.0987,0.19968 0.32878,0.32613 0.68683,0.62145 1.0359,0.92577 0.98251,0.85658 1.49305,1.27294 2.46526,2.08192 4.83589,3.83703 -1.56301,0.45466 -1.20428,-9.77337 0.0598,-1.70366 2.21013,-2.59604 3.3152,-3.89406 -11.91487,6.04948 -3.35962,22.89965 8.55525,16.85018 v 0 c 1.73369,-1.61719 4.81398,-2.51252 5.20107,-4.85157 1.48443,-8.96978 0.0348,-9.75951 -3.78736,-12.86381 -3.06509,-2.54456 -5.9131,-5.77331 -10.02472,-6.61858 -1.67382,-0.3441 -3.41765,0.003 -5.12648,0.004 -0.96444,0.31733 -1.94751,0.5828 -2.89331,0.95198 -0.586,0.22874 -4.39316,2.19511 -4.53472,2.26958 -5.01607,2.63866 -9.93517,5.45927 -14.76378,8.42704 -6.46007,4.13222 -8.96593,5.60584 -15.3207,10.23564 -8.51802,6.20584 -16.54923,13.05798 -24.9216,19.45361 -0.48857,0.39645 -1.8412,0.6845 -1.46571,1.18935 11.97325,16.09791 10.03873,17.28193 13.34377,9.29262 1.83119,-4.70085 3.68025,-9.51316 3.68989,-14.635 0,-13.36265 -18.89763,-13.36265 -18.89763,0 z" />
        </g>
        <g
           id="g63"
           style="fill:#333333;fill-opacity:1"
           transform="translate(0.6131618,0.30537402)">
          <path
             style="fill:#333333;fill-opacity:1"
             id="path43"
             d="m 413.75425,492.03767 c 0.78389,0.99129 1.5893,1.96593 2.35167,2.97386 4.01297,5.30553 7.67529,10.8816 11.91162,16.01208 11.96938,14.49574 19.69826,25.46472 30.87249,40.76974 9.09669,11.98968 17.9198,24.18546 27.38727,35.88775 8.40992,10.3843 23.09554,-1.50911 14.68562,-11.89341 v 0 c -9.35516,-11.53851 -18.02578,-23.60291 -27.02098,-35.42065 -10.27806,-13.53933 -20.57935,-27.06127 -30.78586,-40.65473 -4.11301,-5.47788 -8.11426,-11.0398 -12.27437,-16.48199 -0.98463,-1.28807 -2.02944,-2.529 -3.04416,-3.7935 -8.91015,-9.9584 -22.99345,2.64245 -14.0833,12.60085 z"
             sodipodi:nodetypes="cssccsscsscc" />
          <path
             style="fill:#333333;fill-opacity:1"
             id="path44"
             d="m 520.6086,481.73262 c -2.36933,18.49706 -6.38446,36.74193 -10.67542,54.87322 -3.83116,15.30527 -8.68548,30.31686 -13.54452,45.31706 -0.9448,3.35818 -1.98711,6.67055 -3.4324,9.84712 -0.63939,1.22222 -1.15234,2.40509 -1.54499,3.77406 -1.50095,8.1804 2.67361,3.86663 18.62603,2.09277 0.59409,-0.0661 -0.0799,-1.19282 -0.11993,-1.78923 -1.34419,-13.29486 -20.14597,-11.39389 -18.80178,1.90098 v 0 c 0.52813,-7.22857 21.29381,-5.22188 18.69307,2.11482 -0.4981,1.62514 0.0174,0.0885 -0.8616,2.1289 -0.0625,0.14517 0.15501,-0.27553 0.22984,-0.41475 0.35727,-0.6647 0.68413,-1.34529 1.00208,-2.02947 1.71599,-3.81863 3.07435,-7.76529 4.18762,-11.80161 5.01643,-15.48626 10.01685,-30.98791 13.95729,-46.79293 1.0125,-4.28725 2.07943,-8.56201 3.0375,-12.86175 1.67296,-7.50812 3.66084,-17.5118 5.05027,-25.14453 0.83345,-4.5785 2.12501,-12.15801 2.73649,-17.09642 0.16933,-1.36749 0.23873,-2.7455 0.35809,-4.11824 0,-13.36265 -18.89764,-13.36265 -18.89764,0 z" />
          <path
             style="fill:#333333;fill-opacity:1"
             id="path45"
             d="m 486.29263,587.47268 c 0.55436,1.42897 0.98566,2.40909 1.34979,3.92359 1.76601,7.34526 1.51332,15.06904 1.54966,22.55445 -0.44596,17.07039 -0.96072,34.13565 -0.60418,51.21213 0.0958,2.93913 0.17395,5.88087 0.37012,8.8157 0.0274,0.41055 3.6e-4,1.62929 0.10083,1.23028 0.37278,-1.4805 0.48532,-3.01461 0.72798,-4.52191 -5.55853,12.15168 11.62654,20.01261 17.18506,7.86094 v 0 c 0.30569,-1.64509 0.66769,-3.2807 0.91706,-4.93527 0.036,-0.23858 -0.0483,-0.48022 -0.0646,-0.72096 -0.038,-0.56303 -0.0699,-1.12649 -0.0981,-1.6901 -0.13665,-2.7241 -0.1456,-3.44724 -0.24487,-6.43612 -0.36006,-16.98384 0.19321,-33.95552 0.60798,-50.93369 -0.0844,-11.11356 0.11337,-22.66481 -4.15868,-33.14289 -4.79691,-12.47197 -22.43494,-5.68811 -17.63803,6.78385 z" />
          <path
             style="fill:#333333;fill-opacity:1"
             id="path46"
             d="m 488.38635,663.62126 c -9.83021,9.14896 -18.33534,19.61759 -26.91612,29.91606 -5.69676,7.00026 -11.30517,14.08453 -16.2706,21.62964 -1.5965,2.42591 -3.48198,5.52779 -5.02099,8.02878 -1.20756,2.55068 -3.79984,5.41361 -4.56218,8.16647 -0.43882,1.58459 -1.95815,3.68046 -0.81731,4.86451 11.33377,11.76303 10.33235,10.62001 17.63148,5.55462 9.93817,-8.93271 -2.69458,-22.9874 -12.63275,-14.05469 v 0 c 6.01721,-2.57853 4.11427,-2.36469 13.89605,8.17163 0.75555,0.81383 -0.59742,2.13993 -0.84585,3.22227 -0.062,0.27017 0.15457,-0.53672 0.28551,-0.78104 0.23911,-0.44613 3.1121,-5.19427 3.14129,-5.24267 1.28278,-2.08627 3.23857,-5.29852 4.5639,-7.32151 4.60954,-7.03599 9.855,-13.61605 15.15046,-20.14177 7.85208,-9.42566 15.63481,-18.98485 24.49508,-27.49473 10.26548,-8.55456 -1.8325,-23.07213 -12.09797,-14.51757 z" />
          <path
             style="fill:#333333;fill-opacity:1"
             id="path47"
             d="m 494.14366,677.06414 c 5.81471,6.93379 11.32987,14.15903 16.14835,21.8274 1.28774,2.04937 2.48478,4.15433 3.72717,6.23149 5.2172,8.99795 9.75989,18.35981 14.75847,27.47562 0.59984,1.2299 1.37954,2.34247 2.1333,3.47825 7.42111,11.11249 23.13655,0.61745 15.71543,-10.49504 v 0 c -0.48639,-0.72592 -0.92553,-1.13317 -1.28096,-2.07331 -5.11996,-9.32581 -9.74956,-18.9173 -15.12106,-28.10729 -1.39403,-2.31747 -2.73826,-4.66563 -4.18208,-6.95241 -5.39039,-8.53749 -11.53919,-16.59934 -18.0834,-24.27891 -9.11758,-9.76884 -22.9328,3.12537 -13.81522,12.8942 z" />
          <path
             style="fill:#333333;fill-opacity:1"
             id="path61"
             d="m 414.09543,480.61097 c 5.7151,0.11138 11.41296,-0.39085 17.10853,-0.77122 1.15872,-0.0774 13.33846,-0.83668 14.10166,-0.88435 8.34482,-0.47604 16.69717,-0.81822 25.05217,-1.05307 5.95182,-0.16729 11.17554,-0.33798 17.12116,-0.11612 2.64363,0.0987 5.2796,0.3463 7.9194,0.51945 12.07943,1.23267 23.51349,5.385 34.49909,10.35894 2.36,1.11743 4.71637,2.2426 7.06503,3.38372 1.35362,0.65767 1.91385,0.94063 1.90691,0.93526 -0.69673,-0.53962 -1.45831,-0.98986 -2.18746,-1.48479 3.43553,-15.99187 -1.71168,-13.98898 4.40755,-15.97252 -13.3394,0.78786 -12.22519,19.65263 1.11421,18.86476 v 0 c 8.89351,-1.2407 3.15756,0.64199 7.70318,-16.39119 -0.89201,-0.65448 -3.70716,-1.56026 -2.67603,-1.96344 24.51414,-9.58512 -1.35562,-0.66782 -2.03526,-0.99798 -2.50259,-1.21573 -5.01312,-2.41509 -7.52997,-3.60102 -13.07249,-5.87409 -26.69204,-10.662 -41.06278,-11.99095 -2.97805,-0.18564 -5.95222,-0.45038 -8.93415,-0.55692 -6.22083,-0.22228 -11.7158,-0.0499 -17.92963,0.1253 -8.5415,0.24086 -17.08028,0.59186 -25.61133,1.07968 -1.05462,0.0659 -12.91444,0.80495 -14.26837,0.8955 -5.24795,0.35096 -10.49752,0.83332 -15.76391,0.72332 -13.36265,0 -13.36265,18.89764 0,18.89764 z"
             sodipodi:nodetypes="cscssccscccsscssccsscscc" />
        </g>
        <path
           style="fill:#333333"
           id="path65"
           d="m 554.64536,719.81743 c 4.68434,-14.82708 9.07917,-29.74281 13.71996,-44.5834 2.98442,-9.31331 6.01216,-18.61453 9.23859,-27.84731 0.15624,-0.53388 0.31248,-1.06775 0.46873,-1.60163 3.61146,-12.86537 -14.58292,-17.97274 -18.19438,-5.10738 v 0 c -0.0382,0.15867 -0.0763,0.31733 -0.11448,0.47599 -3.29402,9.42995 -6.38929,18.92835 -9.43503,28.44091 -4.79789,15.34717 -9.40654,30.75445 -14.13102,46.12335 -2.89877,13.04445 15.54886,17.14392 18.44763,4.09947 z" />
        <path
           style="fill:#333333"
           id="path66"
           d="m 408.8137,672.49396 c 0.27234,1.20093 0.43414,2.43239 0.81701,3.60278 1.63651,5.00264 4.55462,9.64402 6.90957,14.31467 2.49893,4.95623 3.87631,7.9075 6.27233,12.92169 3.64351,7.4389 6.81627,15.11672 10.70781,22.43332 0.92862,1.40068 1.32484,3.00187 1.77101,4.59988 0.15063,0.58119 0.31409,1.1602 0.43609,1.74842 2.83064,13.0594 21.29942,9.05627 18.46878,-4.00313 v 0 c -0.21113,-0.9633 -0.454,-1.9193 -0.71541,-2.87016 -0.82303,-2.9032 -1.73702,-5.80946 -3.30819,-8.40935 -3.81706,-7.02098 -6.71371,-14.51763 -10.30998,-21.64848 -3.0136,-6.30337 -6.0881,-12.55892 -9.28749,-18.76974 -0.64045,-1.24326 -1.27754,-2.48826 -1.91181,-3.73468 -0.2783,-0.5469 -0.50385,-1.12292 -0.82589,-1.64527 -0.0319,-0.0517 -0.12124,0.007 -0.18185,0.0107 -1.02487,-13.32329 -19.86685,-11.8739 -18.84198,1.44938 z" />
        <path
           style="fill:#ffffff;stroke-width:0.654392"
           d="m 467.12649,728.7641 c -3.47933,-0.23454 -6.49427,-0.59466 -6.69987,-0.80027 -0.95084,-0.95083 12.67802,-18.81389 26.61013,-34.87735 l 7.54479,-8.69899 2.83611,0.3804 c 2.59312,0.34782 3.12983,0.77288 6.26419,4.96115 4.0481,5.40924 11.55594,17.89672 17.16722,28.5535 l 4.00856,7.61297 -2.14444,0.3878 c -9.46364,1.71143 -44.08119,3.25638 -55.58669,2.48079 z"
           id="path92" />
        <path
           style="fill:#000000;stroke-width:0.654392"
           d="m 424.94266,720.77348 c -15.27016,-4.60845 -29.28251,-11.57335 -46.93687,-23.33015 -11.96763,-7.96976 -30.19651,-21.49556 -30.19651,-22.40577 0,-1.28967 25.38094,-19.58705 41.59856,-29.98883 15.15734,-9.72173 32.03067,-18.63125 40.52763,-21.39956 5.36553,-1.7481 7.12141,-2.80098 8.53358,-5.11702 2.77739,-4.55506 0.92838,-11.24931 -3.75808,-13.60594 l -2.06951,-1.04068 1.63744,-1.63743 c 4.48375,-4.48375 2.54401,-12.76716 -3.60246,-15.38388 l -2.20378,-0.93821 2.20378,-1.14902 c 1.39786,-0.72882 2.76441,-2.26268 3.73678,-4.19429 3.0339,-6.02683 0.0326,-11.80916 -7.14089,-13.75793 -1.95447,-0.53095 -10.62102,-2.90106 -19.25899,-5.26689 -27.43563,-7.5143 -37.77334,-9.33535 -58.08186,-10.23151 -23.67116,-1.04453 -41.67678,1.5682 -67.21194,9.75293 -4.4867,1.43811 -8.20519,2.55565 -8.2633,2.48343 -0.0581,-0.0722 -3.35834,-9.84904 -7.33384,-21.72625 -13.96491,-41.72161 -16.26505,-56.6612 -17.90431,-116.28977 -0.81981,-29.82056 -0.74426,-33.45004 1.49553,-71.8479 0.94453,-16.19263 0.32877,-67.15153 -1.3403,-110.91942 -2.82438,-74.06377 -2.9816,-103.37398 -0.67044,-124.98885 0.64786,-6.0591 2.41008,-16.06471 2.92085,-16.58421 0.12135,-0.12343 0.66548,0.63581 1.20917,1.6872 1.3756,2.66011 8.38286,12.02964 11.36242,15.19289 2.93333,3.11417 16.8918,24.76333 16.32914,25.326 -0.2142,0.2142 -1.30792,-0.38338 -2.43048,-1.32795 -1.12256,-0.94458 -2.60738,-1.71741 -3.2996,-1.71741 -0.86765,0 -1.25991,-0.45734 -1.26289,-1.47238 -0.0115,-3.93353 -4.61354,-7.67835 -9.44387,-7.6848 -6.51128,-0.009 -9.57938,4.0984 -11.15044,14.92642 -2.45153,16.89649 -2.85275,40.22544 -1.34134,77.99292 0.51132,12.777 1.25122,31.91796 1.64423,42.53547 1.80517,48.76831 1.87263,49.9359 3.31783,57.42289 1.33694,6.92609 1.51351,7.36191 2.98276,7.36191 1.84612,0 1.8206,-0.12508 0.58011,2.84383 -0.53987,1.29209 -0.98159,2.94398 -0.98159,3.67086 0,1.57929 3.28786,3.7821 10.48886,7.02738 l 5.06933,2.2846 13.32505,-10.58329 c 13.71673,-10.89437 25.33125,-19.00371 35.50035,-24.78659 l 5.81551,-3.30712 1.7116,1.83227 c 3.86056,4.13275 9.71734,4.05443 14.78206,-0.19766 2.42023,-2.03191 2.57208,-2.37968 2.83382,-6.4902 l 0.27656,-4.34325 1.23306,1.56758 c 0.67818,0.86217 1.23306,2.48764 1.23306,3.61216 0,1.12451 0.4598,3.1394 1.02177,4.47752 0.85934,2.04616 1.12062,2.258 1.64351,1.33243 0.60527,-1.07139 7.75993,-4.12089 13.69452,-5.83695 1.61962,-0.46833 3.19116,-1.16032 3.49232,-1.53776 0.32211,-0.40369 0.42674,-0.1261 0.25413,0.6742 -0.16138,0.74825 0.0858,1.87908 0.54931,2.51296 0.76982,1.05279 0.99466,0.92292 2.59883,-1.50115 3.36706,-5.08797 9.57459,-8.52995 21.89865,-12.14246 4.49894,-1.31875 13.48047,-4.41417 19.95895,-6.87869 22.01557,-8.3751 57.94325,-19.40129 75.76676,-23.25277 23.08465,-4.98839 47.74067,-7.7659 69.18104,-7.79329 18.11121,-0.0231 23.2952,0.5687 43.18987,4.93082 24.81712,5.44142 48.425,15.09137 48.425,19.7942 0,2.40359 1.34445,5.85793 2.76374,7.10093 1.59644,1.39815 4.32276,1.47787 6.17494,0.18056 1.19321,-0.83576 1.84122,-0.84425 4.8509,-0.0635 4.18919,1.08666 6.04004,0.53721 7.46361,-2.21568 0.56636,-1.09521 1.41185,-1.99128 1.87887,-1.99128 0.46703,0 2.97815,-2.50031 5.58027,-5.55624 l 4.73112,-5.55625 1.99308,1.4663 c 1.83959,1.35337 2.50463,1.44109 8.63595,1.13909 32.84272,-1.61767 51.94674,1.75868 70.82871,12.51792 14.64099,8.34265 28.82399,21.73908 30.95706,29.24025 0.86871,3.05489 4.84672,7.97561 6.44764,7.97561 0.7755,0 0.90548,0.5299 0.60193,2.45397 -0.21293,1.34969 -0.99075,8.3435 -1.72848,15.54181 -1.07799,10.51843 -1.84907,14.88642 -3.92768,22.24933 -1.42249,5.03881 -3.79208,15.05101 -5.26575,22.24932 -8.39294,40.9963 -15.51683,69.66833 -24.27654,97.7075 -3.4078,10.90811 -17.94701,53.13981 -18.40675,53.46564 -0.0892,0.0633 -2.6653,-0.12033 -5.72458,-0.40797 -31.33856,-2.94643 -73.21309,-1.56036 -101.10355,3.34658 -18.60725,3.2737 -62.82793,18.75469 -67.81385,23.74061 -4.42253,4.42254 -2.69909,12.84204 3.127,15.27634 l 2.16857,0.90609 -1.29441,2.12297 c -1.738,2.85052 -1.72877,7.81753 0.0198,10.64676 2.10135,3.40004 5.1072,4.45876 11.37371,4.00603 l 5.30297,-0.38311 -3.98806,1.45215 c -5.33678,1.94327 -7.39099,3.40846 -8.50004,6.06278 -2.17764,5.21183 -0.1198,10.69273 4.84042,12.89212 3.42313,1.51784 1.58662,1.78591 16.80917,-2.45359 20.83774,-5.80334 53.97424,-2.51462 80.03757,7.94355 4.56764,1.83281 21.2973,10.14501 22.28934,11.07455 0.68368,0.64062 -10.37616,16.6565 -18.27484,26.464 -9.7005,12.04476 -14.74662,15.89203 -32.50679,24.78388 -16.87325,8.44782 -48.92192,20.95199 -70.52264,27.51526 -12.62087,3.83479 -32.90389,8.92034 -33.43987,8.38435 -0.42253,-0.42252 13.06977,-44.45913 19.15733,-62.52633 2.48662,-7.38 4.27683,-13.81762 4.3018,-15.46936 0.0897,-5.93362 -4.2974,-9.80428 -10.57683,-9.33175 -5.80785,0.43704 -6.81288,2.01057 -12.67139,19.83883 -2.7083,8.24176 -7.63556,23.81931 -10.94945,34.61678 -3.3139,10.79746 -6.17056,19.87329 -6.34814,20.1685 -0.17758,0.29521 -2.2293,-2.94403 -4.55938,-7.19831 -5.41568,-9.88797 -13.62626,-22.24647 -20.49079,-30.84255 l -5.38847,-6.7477 0.37736,-32.5079 c 0.27937,-24.06739 0.5774,-32.57459 1.14783,-32.76474 0.53412,-0.17804 0.6387,0.3214 0.34089,1.62807 -0.4007,1.75816 -0.36457,1.80176 0.53736,0.6484 0.9263,-1.18454 6.32382,-20.92159 11.61623,-37.37262 7.00564,-21.7765 10.54523,-50.54294 14.74266,-63.31242 l 1.66705,-5.07153 4.00017,-0.01 c 2.20009,-0.006 4.36957,-0.24456 4.82107,-0.53122 0.4515,-0.28666 1.12669,-3.00605 1.50042,-6.04311 0.37375,-3.03705 0.93231,-6.45962 1.24127,-7.60572 0.70454,-2.61357 0.20239,-3.08819 -7.16175,-6.76907 -12.65065,-6.32328 -28.05647,-11.54408 -39.57002,-13.4097 -13.00381,-2.1071 -29.65846,-1.94281 -74.62136,0.73608 -19.0122,1.13276 -20.09271,1.37176 -22.83532,5.0511 -0.9984,1.3394 -1.37718,2.81109 -1.37718,5.35074 0,4.06999 1.43542,6.49257 5.00606,8.44879 2.22697,1.22006 2.27561,1.33313 2.0005,4.65048 -0.16804,2.02648 0.0532,4.03275 0.54774,4.96626 0.63647,1.20149 15.05704,40.38954 33.8113,65.26135 13.75366,18.24003 32.24272,22.79252 37.22992,29.16032 5.97413,7.62793 5.86311,6.70595 5.60333,46.53003 l -0.21771,33.37399 -6.99901,7.19831 c -7.59503,7.8113 -20.67377,23.23148 -28.22682,33.28014 -2.60884,3.47081 -4.9429,6.31057 -5.18682,6.31057 -0.24392,0 -1.88472,-3.16563 -3.64622,-7.03472 -1.7615,-3.86909 -6.16406,-13.10445 -9.78345,-20.52302 -3.61939,-7.41857 -7.08758,-14.63837 -7.70708,-16.04399 -1.44833,-3.28621 -4.44968,-5.07497 -8.51531,-5.07497 -3.37611,0 -5.60519,1.23756 -7.98647,4.43402 -1.03136,1.38441 -1.33239,2.71689 -1.27779,5.65597 0.0662,3.56357 0.79129,5.31927 9.91039,23.99696 9.74728,19.96427 12.7706,26.45312 12.43904,26.69747 -0.0943,0.0695 -2.86001,-0.68495 -6.14593,-1.67663 z M 599.6213,456.00858 c 1.10535,-0.5716 2.37408,-2.09838 3.08018,-3.70665 1.75795,-4.00408 6.58747,-44.1627 7.84453,-65.22913 1.40448,-23.5369 0.37517,-57.80004 -1.86647,-62.13013 -2.49253,-4.81476 -8.07629,-6.56867 -12.96769,-4.07326 -4.64832,2.3714 -5.1621,3.78663 -4.79118,13.19764 0.17731,4.49895 0.29916,18.92829 0.27077,32.06521 -0.0555,25.67869 -0.25559,28.45659 -4.58568,63.66726 -2.54197,20.67034 -2.50597,21.60736 0.95795,24.926 3.22769,3.09233 7.64904,3.56281 12.05759,1.28306 z M 397.32046,445.2392 c 1.03308,-0.73562 2.31988,-2.19134 2.85954,-3.23495 1.45913,-2.82162 6.4395,-65.12444 7.29439,-91.2502 0.38855,-11.87466 0.34335,-12.55783 -1.00591,-15.20113 -1.73974,-3.40828 -4.57784,-4.9973 -8.83311,-4.94556 -3.41826,0.0416 -5.55648,1.22109 -7.89746,4.35658 -1.21004,1.62072 -1.3883,3.1301 -1.81146,15.33779 -0.51196,14.76967 -1.60438,31.19298 -4.18699,62.94674 -2.01748,24.80542 -1.943,27.98126 0.72148,30.76238 3.3284,3.4741 8.95136,4.01121 12.85952,1.22835 z"
           id="path93"
           sodipodi:nodetypes="ssssssscsscssssssssssssscssssccsssssssscsscssscssssssssssssssssssssscssssssssssssssscssscsssssssssssssssssscssssssccsssssssssssssscsssssssssssssssssssssssssssssssss" />
        <path
           style="fill:#000000;stroke-width:0.654392"
           d="m 342.68408,292.46696 c -2.81887,-2.31514 -5.79903,-4.37846 -6.62258,-4.58516 -1.15117,-0.28892 -2.41571,-2.2934 -5.46934,-8.66969 -5.7106,-11.92433 -9.13062,-23.41517 -17.46554,-58.68205 -1.70124,-7.19831 -4.54084,-17.91349 -6.31023,-23.81151 -1.7694,-5.89802 -3.10849,-10.83226 -2.97576,-10.96499 0.31941,-0.31941 10.11983,20.02087 15.02196,31.17735 7.8278,17.81483 17.05559,41.12043 23.83763,60.20405 5.75501,16.19373 5.88273,16.6154 5.48643,18.11417 -0.34996,1.32353 -0.74961,1.12146 -5.50257,-2.78217 z"
           id="path94" />
        <path
           style="fill:#000000;stroke-width:0.654392"
           d="m 297.78857,621.02095 c -3.09969,-4.84828 -4.21881,-5.99557 -8.7503,-8.97058 -4.88631,-3.20795 -5.62043,-4.41112 -2.16184,-3.54307 0.82797,0.20781 2.33789,1.19361 3.35537,2.19067 1.01748,0.99705 1.68099,1.37112 1.47447,0.83124 -0.20653,-0.53987 -1.77081,-4.22083 -3.47618,-8.1799 -1.70537,-3.95907 -4.21658,-10.32043 -5.58047,-14.13636 l -2.47979,-6.93805 9.60723,-3.02512 c 22.23992,-7.0029 32.04065,-8.61312 51.8155,-8.5131 22.35055,0.11306 33.09564,1.78492 60.08032,9.34809 6.36657,1.78441 14.16259,3.88585 17.32448,4.66987 3.16189,0.78403 5.63796,1.53643 5.50237,1.67202 -0.13558,0.13558 -7.05029,1.12328 -15.36603,2.19489 -36.23014,4.66881 -60.97237,12.97356 -97.71765,32.79899 -5.25974,2.83783 -9.67793,5.15969 -9.81819,5.15969 -0.14027,0 -1.85445,-2.50168 -3.80929,-5.55928 z"
           id="path95" />
        <path
           style="fill:#000000;stroke-width:0.654392"
           d="m 326.11481,656.11298 c -3.20188,-3.18061 -7.3499,-7.54707 -9.21782,-9.70325 l -3.39623,-3.92031 6.0296,-3.30846 c 30.57281,-16.77539 56.75176,-26.18314 84.12354,-30.23089 14.35662,-2.12307 14.66006,-1.98085 5.44729,2.55324 -19.66686,9.67908 -47.09414,27.28765 -68.81741,44.18141 -3.77912,2.93894 -7.20327,5.53876 -7.60925,5.77736 -0.41973,0.2467 -3.24927,-2.06064 -6.55972,-5.3491 z"
           id="path96" />
        <path
           style="fill:#000000;stroke-width:0.654392"
           d="m 730.95573,580.37746 c -14.71228,-2.72225 -43.87736,-5.80958 -65.04202,-6.88516 -16.97875,-0.86286 -41.95248,-0.39655 -53.07571,0.99103 -13.59972,1.6965 -15.81701,1.86355 -14.6294,1.10217 2.39363,-1.53457 22.68303,-8.7338 33.27413,-11.80656 22.22125,-6.44697 40.18998,-8.5819 73.62452,-8.7476 21.21205,-0.10513 38.63577,0.53433 40.15575,1.47373 0.69125,0.42722 -1.22123,6.53638 -7.23852,23.12254 -0.35907,0.98977 -0.99215,1.76772 -1.40684,1.72878 -0.41468,-0.0389 -2.96254,-0.47946 -5.66191,-0.97893 z"
           id="path97" />
        <path
           style="fill:#000000;stroke-width:0.654392"
           d="m 718.05355,615.77371 c -2.48616,-1.74138 -17.9516,-9.29694 -24.04659,-11.74784 -9.88196,-3.97371 -25.14334,-8.13421 -36.14091,-9.85259 l -10.34528,-1.61646 13.08783,0.36072 c 7.19831,0.1984 19.27184,0.93105 26.83007,1.62812 13.82281,1.27483 37.31985,4.22322 40.43934,5.07429 l 1.67655,0.4574 -4.44286,8.14934 c -2.44358,4.48214 -4.71047,8.23854 -5.03754,8.34756 -0.32707,0.10902 -1.23634,-0.25122 -2.02061,-0.80054 z"
           id="path98" />
        <path
           style="fill:#000000;stroke-width:0.654392"
           d="m 735.59233,211.24145 c 0.43767,-1.26059 23.65155,-28.90039 35.61756,-42.40834 13.81466,-15.59483 44.23058,-46.07767 53.32388,-53.4412 7.4687,-6.04797 16.42372,-12.47939 16.82183,-12.08129 0.68332,0.68332 -5.56842,41.63718 -6.35606,41.63718 -0.20584,0 -1.40136,-2.42943 -2.65671,-5.39873 l -2.28245,-5.39873 -3.1325,-0.20117 c -2.44676,-0.15713 -3.77909,0.17776 -6.08622,1.52983 -7.61153,4.46065 -32.33762,26.05934 -61.03256,53.31306 -6.63159,6.29852 -14.85435,14.10214 -18.27278,17.34138 -3.41843,3.23924 -6.09323,5.53785 -5.94399,5.10801 z"
           id="path99" />
        <path
           style="fill:#de8787;stroke-width:0.654392"
           d="m 277.67562,316.09575 c -1.55062,-0.75692 -2.89162,-1.93761 -3.10217,-2.73132 -0.20399,-0.76893 -0.66541,-12.40075 -1.02538,-25.84848 -0.35998,-13.44773 -0.81675,-26.80623 -1.01504,-29.68555 -1.72805,-25.09249 -2.85888,-87.58313 -1.68155,-92.92365 l 0.43279,-1.96317 2.29843,3.92635 c 8.00376,13.67266 15.45658,35.3019 21.88252,63.50653 6.17412,27.09935 11.91951,46.01251 17.3075,56.97434 1.7494,3.55914 3.13362,6.48876 3.07604,6.51029 -2.99889,1.1211 -21.58801,13.2746 -28.89792,18.89335 -2.87932,2.21319 -5.52961,4.17036 -5.88953,4.34927 -0.35991,0.17892 -1.88347,-0.27467 -3.38569,-1.00796 z"
           id="path101" />
        <path
           style="fill:#de8787;stroke-width:0.654392"
           d="M 788.3093,276.23879 C 770.48528,263.5113 750.63942,256.375 727.35657,254.32104 l -5.88952,-0.51957 19.65204,-19.58046 c 10.80862,-10.76926 26.26863,-25.79851 34.35557,-33.39833 15.26178,-14.34248 34.89946,-32.29794 35.10217,-32.09522 0.064,0.064 -0.2974,1.88087 -0.8032,4.03739 -2.20769,9.41262 -6.50374,37.9648 -10.71751,71.23025 -2.50101,19.74416 -4.64864,35.99983 -4.77251,36.12369 -0.12387,0.12387 -2.8123,-1.62213 -5.97431,-3.88 z"
           id="path102" />
        <path
           style="fill:#666666;fill-opacity:1;stroke-width:0.462725"
           d="m 456.16305,745.78499 c -2.689,-3.49279 -14.4418,-19.06223 -26.11733,-34.59875 -11.67553,-15.53652 -28.66897,-38.12906 -37.7632,-50.20566 -25.12444,-33.36372 -37.24977,-49.71097 -36.94977,-49.81531 0.44302,-0.15407 30.90726,-1.9426 41.91661,-2.46089 5.59897,-0.26358 18.09255,-0.6082 27.7635,-0.76582 24.86662,-0.40528 35.26144,0.4818 49.51157,4.22525 5.46659,1.43606 17.56898,5.40518 18.09988,5.93608 0.28406,0.28406 -2.22179,16.24602 -4.2654,27.17004 -4.89551,26.16874 -11.06906,52.75201 -17.14,73.80463 -2.28623,7.92811 -9.86248,32.70218 -10.07876,32.95721 -0.0484,0.0571 -2.28809,-2.75399 -4.9771,-6.24678 z"
           id="path4"
           transform="matrix(0.66255538,0,0,0.65994717,194.15606,77.113751)" />
        <path
           style="fill:#1a1a1a;fill-opacity:1;stroke-width:0.462725"
           d="M 459.6719,749.93585 C 453.80287,742.39757 360.12093,617.69673 357.32727,613.70403 l -1.51593,-2.16656 1.51593,-0.24397 c 0.83376,-0.13419 7.45037,-0.57038 14.70358,-0.96932 7.25322,-0.39894 16.41517,-0.93168 20.3599,-1.18388 12.0607,-0.77106 53.04483,-1.09411 60.15424,-0.47415 11.2553,0.9815 20.20822,2.91425 32.73779,7.06742 5.72359,1.89719 7.05656,2.50117 7.05656,3.19739 0,2.00447 -2.9945,19.92496 -5.36773,32.12303 -6.09435,31.32407 -11.63654,53.68655 -20.64224,83.29049 -2.55487,8.39846 -4.74766,15.63432 -4.87288,16.0797 -0.30419,1.08196 -0.63182,0.9923 -1.78459,-0.48833 z"
           id="path5"
           transform="matrix(0.66255538,0,0,0.65994717,194.15606,77.113751)" />
      </g>
    </g>
  </g>
</svg>
